<?xml version="1.0" encoding="utf-8"?>
<!-- Generator: Adobe Illustrator 27.5.0, SVG Export Plug-In . SVG Version: 6.00 Build 0)  -->
<svg version="1.1" xmlns="http://www.w3.org/2000/svg" xmlns:xlink="http://www.w3.org/1999/xlink" x="0px" y="0px"
	 viewBox="0 0 500 500" style="enable-background:new 0 0 500 500;" xml:space="preserve">
<g id="BACKGROUND">
	<rect style="fill:#E4D6CC;" width="500" height="500"/>
	<path style="fill:#C9B5A9;" d="M40.353,437.967c0,0,2.899-70.196,27.06-77.629c24.161-7.433,28.51,44.182,48.805,46.66
		c20.295,2.478,89.396-72.674,111.624-74.325s24.161,40.053,42.523,39.64s32.859-34.685,58.47-34.685s24.644,35.511,44.939,38.401
		c20.295,2.89,30.926-14.865,48.805-14.865c17.879,0,36.725,38.401,36.725,74.325L40.353,437.967z"/>
	
		<ellipse transform="matrix(0.7071 -0.7071 0.7071 0.7071 -119.2804 181.2322)" style="fill:#F4E8D8;" cx="159.126" cy="234.6" rx="75.569" ry="75.569"/>
</g>
<g id="OBJECTS">
	<g>
		<path style="fill:#FFFFFF;" d="M442.028,93.348l1.483,0.481c0.677,0.219,0.677,1.177,0,1.397l-1.483,0.481
			c-1.852,0.6-3.303,2.052-3.904,3.904l-0.481,1.483c-0.22,0.677-1.177,0.677-1.397,0l-0.481-1.483
			c-0.6-1.852-2.052-3.303-3.904-3.904l-1.483-0.481c-0.677-0.22-0.677-1.177,0-1.397l1.483-0.481
			c1.852-0.6,3.303-2.052,3.904-3.904l0.481-1.483c0.22-0.677,1.177-0.677,1.397,0l0.481,1.483
			C438.724,91.296,440.176,92.748,442.028,93.348z"/>
		<path style="fill:#FFFFFF;" d="M260.733,285.751l1.483,0.481c0.677,0.219,0.677,1.177,0,1.397l-1.483,0.481
			c-1.852,0.601-3.303,2.052-3.904,3.904l-0.481,1.483c-0.22,0.677-1.178,0.677-1.397,0l-0.481-1.483
			c-0.6-1.852-2.052-3.303-3.904-3.904l-1.483-0.481c-0.677-0.22-0.677-1.178,0-1.397l1.483-0.481
			c1.852-0.6,3.303-2.052,3.904-3.904l0.481-1.483c0.22-0.677,1.178-0.677,1.397,0l0.481,1.483
			C257.43,283.699,258.882,285.151,260.733,285.751z"/>
		<path style="fill:#FFFFFF;" d="M61.762,272.339l1.011,0.328c0.462,0.15,0.462,0.803,0,0.952l-1.011,0.328
			c-1.262,0.409-2.252,1.399-2.661,2.661l-0.328,1.011c-0.15,0.462-0.803,0.462-0.952,0l-0.328-1.011
			c-0.409-1.262-1.399-2.252-2.661-2.661l-1.011-0.328c-0.462-0.15-0.462-0.803,0-0.952l1.011-0.328
			c1.262-0.409,2.252-1.399,2.661-2.661l0.328-1.011c0.15-0.462,0.803-0.462,0.952,0l0.328,1.011
			C59.51,270.94,60.5,271.93,61.762,272.339z"/>
		<path style="fill:#FFFFFF;" d="M268.653,300.594l1.011,0.328c0.462,0.15,0.462,0.803,0,0.952l-1.011,0.328
			c-1.262,0.409-2.252,1.399-2.661,2.661l-0.328,1.011c-0.15,0.461-0.803,0.461-0.952,0l-0.328-1.011
			c-0.409-1.262-1.399-2.252-2.661-2.661l-1.011-0.328c-0.462-0.15-0.462-0.803,0-0.952l1.011-0.328
			c1.262-0.409,2.252-1.399,2.661-2.661l0.328-1.011c0.15-0.462,0.803-0.462,0.952,0l0.328,1.011
			C266.401,299.195,267.391,300.185,268.653,300.594z"/>
		<path style="fill:#FFFFFF;" d="M266.189,143.788l1.011,0.328c0.462,0.15,0.462,0.803,0,0.952l-1.011,0.328
			c-1.262,0.409-2.252,1.399-2.661,2.661l-0.328,1.011c-0.15,0.462-0.803,0.462-0.952,0l-0.328-1.011
			c-0.409-1.262-1.399-2.252-2.661-2.661l-1.011-0.328c-0.462-0.15-0.462-0.803,0-0.952l1.011-0.328
			c1.262-0.409,2.252-1.399,2.661-2.661l0.328-1.011c0.15-0.462,0.803-0.462,0.952,0l0.328,1.011
			C263.937,142.389,264.927,143.379,266.189,143.788z"/>
		<path style="fill:#FFFFFF;" d="M118.934,93.724l1.011,0.328c0.462,0.15,0.462,0.803,0,0.952l-1.011,0.328
			c-1.262,0.409-2.252,1.399-2.661,2.661l-0.328,1.011c-0.15,0.461-0.803,0.461-0.952,0l-0.328-1.011
			c-0.409-1.262-1.399-2.252-2.661-2.661l-1.011-0.328c-0.462-0.15-0.462-0.803,0-0.952l1.011-0.328
			c1.262-0.409,2.252-1.399,2.661-2.661l0.328-1.011c0.15-0.461,0.803-0.461,0.952,0l0.328,1.011
			C116.682,92.325,117.671,93.314,118.934,93.724z"/>
		<path style="fill:#FFFFFF;" d="M70.748,420.953l1.011,0.328c0.462,0.15,0.462,0.803,0,0.952l-1.011,0.328
			c-1.262,0.409-2.252,1.399-2.661,2.661l-0.328,1.011c-0.15,0.462-0.803,0.462-0.952,0l-0.328-1.011
			c-0.409-1.262-1.399-2.252-2.661-2.661l-1.011-0.328c-0.462-0.15-0.462-0.803,0-0.952l1.011-0.328
			c1.262-0.409,2.252-1.399,2.661-2.661l0.328-1.011c0.15-0.462,0.803-0.462,0.952,0l0.328,1.011
			C68.496,419.554,69.485,420.544,70.748,420.953z"/>
		<path style="fill:#FFFFFF;" d="M471.149,337.326l1.011,0.328c0.461,0.15,0.461,0.803,0,0.952l-1.011,0.328
			c-1.262,0.409-2.252,1.399-2.661,2.661l-0.328,1.011c-0.15,0.462-0.803,0.462-0.952,0l-0.328-1.011
			c-0.409-1.262-1.399-2.252-2.661-2.661l-1.011-0.328c-0.462-0.15-0.462-0.803,0-0.952l1.011-0.328
			c1.262-0.409,2.252-1.399,2.661-2.661l0.328-1.011c0.15-0.462,0.803-0.462,0.952,0l0.328,1.011
			C468.897,335.927,469.887,336.917,471.149,337.326z"/>
	</g>
	<g>
		<path style="fill:#FFFFFF;" d="M384.333,129.296h-42.977c-34.945,0-63.273,28.328-63.273,63.273v18.19
			c0,34.945,28.328,63.273,63.273,63.273h5.761l13.28,23.002c1.088,1.884,3.808,1.884,4.896,0l13.28-23.002h5.76
			c34.945,0,63.273-28.328,63.273-63.273v-18.19C447.606,157.624,419.277,129.296,384.333,129.296z"/>
		<g>
			<polygon style="fill:#B9CFE6;" points="381.201,146.461 325.335,146.461 325.335,249.541 402.977,249.541 402.977,168.237 			"/>
			<polygon style="fill:#6779B7;" points="381.201,168.237 402.977,168.237 381.201,146.461 			"/>
			<path style="fill:#2E344B;" d="M352.661,186.674c-0.004-0.129-0.025-0.257-0.046-0.384c-0.001-0.219-0.008-0.439-0.006-0.658
				c-0.005-0.669-0.286-1.361-0.76-1.835c-0.45-0.45-1.189-0.789-1.835-0.76c-0.671,0.03-1.368,0.251-1.835,0.76
				c-0.464,0.505-0.766,1.134-0.76,1.835c0.001,0.173-0.005,0.345-0.005,0.517c-0.036,0.171-0.053,0.346-0.047,0.525
				c-0.039,1.115-0.059,2.22-0.028,3.336c0.006,0.233,0.05,0.463,0.112,0.689c0.004,0.058,0.001,0.117,0.006,0.176
				c0.057,0.688,0.247,1.306,0.749,1.809c0.444,0.444,1.172,0.778,1.809,0.749c0.661-0.029,1.348-0.247,1.809-0.749
				c0.437-0.476,0.805-1.139,0.749-1.809c0.004-0.045,0.002-0.09,0.005-0.135c0.071-0.235,0.12-0.476,0.113-0.729
				C352.719,188.894,352.699,187.789,352.661,186.674z"/>
			<path style="fill:#2E344B;" d="M379.705,186.674c-0.004-0.129-0.025-0.257-0.046-0.384c-0.001-0.219-0.008-0.439-0.006-0.658
				c-0.005-0.669-0.286-1.361-0.76-1.835c-0.45-0.45-1.189-0.789-1.835-0.76c-0.671,0.03-1.368,0.251-1.835,0.76
				c-0.464,0.505-0.766,1.134-0.76,1.835c0.001,0.173-0.005,0.345-0.005,0.517c-0.036,0.171-0.053,0.346-0.047,0.525
				c-0.038,1.115-0.058,2.22-0.028,3.336c0.006,0.233,0.051,0.463,0.112,0.689c0.004,0.058,0.001,0.117,0.006,0.176
				c0.057,0.688,0.247,1.306,0.749,1.809c0.444,0.444,1.172,0.778,1.809,0.749c0.661-0.029,1.348-0.247,1.809-0.749
				c0.437-0.476,0.805-1.139,0.749-1.809c0.004-0.045,0.002-0.09,0.005-0.135c0.071-0.235,0.12-0.476,0.113-0.729
				C379.763,188.894,379.743,187.789,379.705,186.674z"/>
			<path style="fill:#2E344B;" d="M374.957,207.333c-0.166-1.229-1.497-2.079-2.435-2.738c-0.892-0.626-1.861-1.115-2.867-1.527
				c-2.109-0.863-4.454-1.249-6.723-0.986c-2.18,0.253-4.286,0.976-6.137,2.164c-1.512,0.971-3.945,2.679-3.946,4.691
				c0,0.416,0.423,0.764,0.834,0.635c0.788-0.247,1.443-0.891,2.041-1.438c0.68-0.621,1.427-1.152,2.231-1.601
				c1.564-0.874,3.336-1.41,5.13-1.475c1.778-0.065,3.582,0.24,5.216,0.954c0.824,0.36,1.626,0.826,2.347,1.363
				c0.811,0.604,1.472,1.555,2.51,1.756C374.345,209.363,375.11,208.463,374.957,207.333z"/>
			<path style="fill:#C85F64;" d="M369.391,168.583c-0.631-0.631-1.262-1.262-1.893-1.893c-0.004-0.004-0.006-0.008-0.01-0.012
				c-0.581-0.581-1.162-1.162-1.743-1.743c0.581-0.581,1.162-1.162,1.743-1.743c0.004-0.004,0.006-0.008,0.009-0.012
				c0.631-0.631,1.262-1.262,1.893-1.894c0.544-0.544,0.544-1.47,0-2.014c-0.546-0.546-1.468-0.546-2.014,0
				c-0.631,0.631-1.262,1.262-1.893,1.893c-0.004,0.004-0.008,0.006-0.012,0.01c-0.581,0.581-1.162,1.162-1.743,1.742
				c-0.043-0.043-0.087-0.087-0.13-0.13c0,0,0-0.001-0.001-0.001c-0.314-0.357-0.68-0.68-1.017-1.017
				c-0.003-0.003-0.006-0.004-0.008-0.007c-0.591-0.59-1.181-1.181-1.772-1.771c-0.005-0.005-0.01-0.007-0.015-0.012
				c-0.236-0.236-0.472-0.472-0.708-0.708c-0.543-0.543-1.469-0.543-2.012,0c-0.545,0.545-0.545,1.467,0,2.012
				c0.236,0.236,0.472,0.472,0.708,0.708c0.004,0.005,0.008,0.01,0.012,0.015c0.59,0.59,1.181,1.181,1.771,1.771
				c0.003,0.003,0.004,0.006,0.007,0.008c0.336,0.337,0.659,0.702,1.017,1.017c0,0,0.001,0.001,0.001,0.001
				c0.043,0.043,0.087,0.087,0.13,0.13c-0.043,0.043-0.087,0.087-0.13,0.13c0,0-0.001,0.001-0.001,0.001
				c-0.357,0.314-0.68,0.68-1.017,1.017c-0.003,0.003-0.004,0.006-0.007,0.008c-0.59,0.59-1.181,1.181-1.771,1.771
				c-0.005,0.005-0.008,0.01-0.012,0.015c-0.236,0.236-0.472,0.472-0.708,0.708c-0.543,0.544-0.543,1.469,0,2.012
				c0.545,0.545,1.467,0.545,2.012,0c0.236-0.236,0.472-0.472,0.708-0.708c0.005-0.005,0.01-0.007,0.015-0.012
				c0.59-0.59,1.181-1.181,1.771-1.771c0.003-0.003,0.006-0.004,0.008-0.007c0.337-0.337,0.702-0.66,1.017-1.017
				c0,0,0-0.001,0.001-0.001c0.043-0.043,0.087-0.087,0.13-0.13c0.581,0.581,1.162,1.162,1.743,1.742
				c0.004,0.004,0.008,0.006,0.012,0.009c0.631,0.631,1.263,1.262,1.894,1.893c0.544,0.544,1.47,0.544,2.014,0
				C369.937,170.051,369.937,169.128,369.391,168.583z"/>
		</g>
	</g>
	<g>
		<path style="fill:#2E344B;" d="M251.502,360.347c-1.594,1.973-8.881,5.617-8.881,5.617l0.228-11.385L251.502,360.347z"/>
		<path style="fill:#D8877B;" d="M247.555,357.615l-37.648,2.429c0,0-4.941,39.769,1.324,51.801
			c6.266,12.032,26.532,15.904,38.145,14.993c11.613-0.911,66.423-0.912,72.669-0.13c6.246,0.782,12.818,5.228,12.818,5.228h43.395
			c0,0-7.032-12.354-18.873-22.555c-11.841-10.202-23.669-8.501-30.16-8.957c-6.491-0.455-71.04-12.386-76.05-14.194
			C248.167,384.423,247.555,357.615,247.555,357.615z"/>
		<path style="fill:#B44E50;" d="M247.555,357.615l-30.866,1.991l-1.013,2.259c0,0,18.075,3.811,32.23,2.856
			C247.625,360.64,247.555,357.615,247.555,357.615z"/>
		<path style="fill:#2E344B;" d="M57.04,357.767c5.099,2.38,15.939,7.97,22.771,7.514c6.831-0.455,1.366-15.712,1.366-15.712
			L57.04,357.767z"/>
		<path style="fill:#4F6E59;" d="M133.622,258.202c0,0-36.278,8.027-52.218,20.095c-15.94,12.068-24.365,70.362-24.365,79.47
			c0,0,7.179,0.321,9.795,0.321l27.771,51.027l-2.499,24.657h130.048l-6.479-71.905l35.826-1.518c0,0-13.359-69.83-23.378-78.331
			c-10.019-8.501-46.589-17.146-46.589-17.146l-32.957-6.535L133.622,258.202z"/>
		<path style="fill:#D8877B;" d="M109.751,358.087H66.834c0,0-0.922,35.046,5.344,47.078c6.266,12.033,26.532,15.904,38.145,14.993
			s66.423-0.912,72.669-0.13c6.246,0.782,12.818,5.228,12.818,5.228h43.395c0,0-7.032-12.354-18.873-22.555
			c-11.841-10.202-23.669-8.501-30.16-8.957c-6.491-0.455-71.04-12.386-76.05-14.194
			C109.113,377.743,109.751,358.087,109.751,358.087z"/>
		<path style="fill:#2E344B;" d="M137.421,245.269c0,0-34.117-2.246-36.1-49.671c-1.587-37.961,18.953-39.869,18.953-39.869
			s3.652-17.702,13.664-21.119c10.012-3.417,15.662,3.075,15.662,3.075s5.657-9.848,17.311-7.725
			c11.653,2.123,16.282,11.937,16.282,11.937s16.67-5.253,21.595,11.366c0,0,12.721,5.645,8.728,24.454
			c0,0,9.174,4.357-0.195,20.058c0,0,3.169,31.652-22.087,39.57C165.978,245.265,137.421,245.269,137.421,245.269z"/>
		<path style="fill:#D8877B;" d="M141.988,235.632c0,0-3.67,16.866-8.366,22.569c0,0,22.373,23.287,47.913,6.668l-0.165-19.488
			L141.988,235.632z"/>
		<path style="fill:#2E344B;" d="M37.46,440.652h425.219c2.515,0,4.554-2.039,4.554-4.554l0,0c0-2.515-2.039-4.554-4.554-4.554
			H37.46c-2.515,0-4.554,2.039-4.554,4.554l0,0C32.905,438.613,34.944,440.652,37.46,440.652z"/>
		<path style="fill:#B44E50;" d="M135.926,254.434c22.002,14.165,44.987,1.775,44.987,1.775l-10.96-13.654l-27.964-6.923
			C141.988,235.632,139.464,247.221,135.926,254.434z"/>
		<path style="fill:#D8877B;" d="M121.885,205.309c0,0-7.726-4.962-10.761,6.835c-3.036,11.797,6.752,15.148,13.413,13.33
			c0,0,5.273,30.302,41.686,32.817c36.413,2.515,40.049-46.423,37.358-66.84c0,0-15.075-0.977-19.694-7.456
			c0,0-16.665,3.646-23.278-4.063c0,0-10.529,13.231-20.105,9.589C140.502,189.522,135.257,205.268,121.885,205.309z"/>
		<path style="fill:#B44E50;" d="M121.163,209.419c-1.158-0.692-2.568-0.833-3.828-0.327c-0.597,0.24-1.293,0.714-1.618,1.285
			c-0.233,0.409-0.338,1.144,0.25,1.288c0.427,0.104,0.82-0.216,1.142-0.451c0.36-0.262,0.818-0.473,1.256-0.558
			c0.804-0.156,1.663,0.127,2.242,0.705c1.192,1.189,0.81,3.152,0.421,4.79c-1.867-0.192-3.809,1.066-4.199,2.985
			c-0.415,2.044,1.801,5.375,4.112,4.078c0.44-0.247,0.471-0.837-0.003-1.072c-0.985-0.49-2.49-1.28-2.089-2.648
			c0.295-1.008,1.641-1.482,2.544-1.076c0.641,0.289,1.33-0.177,1.446-0.825C123.342,214.787,124.105,211.176,121.163,209.419z"/>
		<path style="fill:#B44E50;" d="M183.886,183.996c0,0-16.665,3.646-23.278-4.063c0,0-10.529,13.231-20.105,9.589
			c0,0-5.246,15.746-18.618,15.787c10.503,5.011,19.46-5.369,21.192-11.342c0,0,12.128,1.374,17.789-7.879
			c0,0,12.171,6.881,20.825,1.136c0,0,6.921,8.516,22.259,7.712c-0.103-1.232-0.227-2.401-0.37-3.484
			C203.58,191.452,188.505,190.475,183.886,183.996z"/>
		<path style="fill:#2E344B;" d="M128.131,259.535c1.875,3.544,4.327,6.809,7.474,9.301c3.989,3.159,8.75,5.085,13.464,6.883
			c5.04,1.923,10.222,3.254,15.658,2.816c5.13-0.413,10.088-2.092,14.556-4.619c3.483-1.969,6.646-4.439,9.551-7.184
			c-0.777-0.208-1.505-0.4-2.181-0.576c-5.637,5.074-12.261,9.029-19.885,10.208c-5.229,0.808-10.137-0.163-15.075-1.884
			c-4.561-1.589-9.209-3.342-13.263-6.01c-3.686-2.425-6.271-5.786-8.68-9.344C129.25,259.251,128.711,259.387,128.131,259.535z"/>
		<path style="fill:#B44E50;" d="M66.793,364.662c20.748,0.702,42.958-6.574,42.958-6.574H66.834
			C66.834,358.088,66.767,360.672,66.793,364.662z"/>
		<path style="fill:#B44E50;" d="M234.213,421.57c-0.678-0.618-0.969-1.787-1.355-2.605c-0.463-0.981-0.943-1.954-1.443-2.917
			c-1.025-1.972-2.148-3.895-3.413-5.723c-1.198-1.731-2.536-3.375-4.019-4.87c-0.735-0.741-1.503-1.455-2.329-2.095
			c-0.731-0.567-1.504-1.256-2.471-1.28c-0.163-0.004-0.328,0.18-0.263,0.345c0.339,0.858,1.139,1.391,1.801,1.996
			c0.788,0.719,1.555,1.459,2.277,2.246c1.476,1.609,2.769,3.375,3.941,5.216c1.137,1.785,2.147,3.649,3.071,5.552
			c0.475,0.978,0.921,1.969,1.352,2.966c0.385,0.893,0.664,1.942,1.409,2.611C233.745,423.884,235.186,422.458,234.213,421.57z"/>
		<path style="fill:#B44E50;" d="M225.941,423.962c-0.267-0.67-0.555-1.329-0.885-1.97c-0.627-1.219-1.348-2.389-2.154-3.497
			c-0.81-1.115-1.693-2.164-2.672-3.134c-0.914-0.905-1.987-1.941-3.251-2.308c-0.223-0.065-0.395,0.185-0.291,0.379
			c0.609,1.129,1.651,2.025,2.48,2.991c0.846,0.985,1.628,2.032,2.331,3.124c0.707,1.096,1.333,2.243,1.873,3.43
			c0.269,0.591,0.527,1.189,0.76,1.795c0.251,0.652,0.439,1.367,1.161,1.607c0.338,0.112,0.679-0.08,0.865-0.352
			C226.581,425.408,226.187,424.581,225.941,423.962z"/>
		<path style="fill:#B44E50;" d="M214.946,421.55c-1.019-1.614-2.216-3.371-3.797-4.465c-0.392-0.271-0.759,0.24-0.594,0.594
			c0.395,0.852,0.931,1.622,1.453,2.406c0.523,0.785,1.018,1.591,1.504,2.4c0.473,0.787,0.916,1.591,1.33,2.411
			c0.448,0.886,0.868,1.705,1.521,2.46c0.319,0.369,1.056,0.087,1.006-0.417C217.172,424.981,215.978,423.186,214.946,421.55z"/>
		<path style="fill:#B44E50;" d="M208.22,425.535c-0.386-1.108-0.936-2.169-1.478-3.208c-0.293-0.561-0.614-1.103-0.949-1.64
			c-0.328-0.525-0.761-1.182-1.321-1.473c-0.233-0.121-0.533,0.027-0.532,0.305c0.003,0.535,0.271,1.102,0.494,1.584
			c0.247,0.533,0.515,1.063,0.781,1.587c0.524,1.032,0.952,2.107,1.462,3.143c0.219,0.446,0.604,1.322,1.238,1.148
			C208.532,426.814,208.375,425.979,208.22,425.535z"/>
		<path style="fill:#6779B7;" d="M178.274,421.943h98.788c2.651,0,4.8,2.149,4.8,4.8l0,0c0,2.651-2.149,4.8-4.8,4.8h-98.788
			c-2.651,0-4.8-2.149-4.8-4.8l0,0C173.474,424.092,175.623,421.943,178.274,421.943z"/>
		<path style="fill:#2E344B;" d="M281.863,426.744c0-2.651-2.149-4.8-4.8-4.8h-5.945l-0.842,3.951
			c-0.62,2.909,1.599,5.65,4.573,5.65h2.215C279.714,431.544,281.863,429.395,281.863,426.744z"/>
		<path style="fill:#6779B7;" d="M449.44,327.557H298.301c-2.207,0-4.113,1.543-4.573,3.701l-20.164,94.635
			c-0.62,2.909,1.598,5.65,4.573,5.65h151.139c2.207,0,4.113-1.543,4.573-3.701l20.164-94.636
			C454.633,330.298,452.415,327.557,449.44,327.557z"/>
		<circle style="fill:#B9CFE6;" cx="363.789" cy="379.551" r="12.934"/>
		<path style="fill:#B44E50;" d="M253.906,386.8c-0.366-0.143-0.68-0.359-1.042-0.512c-0.297-0.125-0.582-0.27-0.866-0.424
			c-0.634-0.344-1.249-0.694-1.798-1.167c-0.552-0.476-1.045-1.017-1.496-1.588c-0.448-0.566-0.776-1.21-1.194-1.795
			c-0.187-0.262-0.653-0.194-0.645,0.175c0.018,0.831,0.369,1.612,0.769,2.328c0.405,0.725,0.971,1.376,1.593,1.922
			c0.631,0.553,1.349,1.088,2.128,1.412c0.374,0.156,0.766,0.308,1.163,0.393c0.418,0.09,0.855,0.061,1.281,0.053
			C254.279,387.586,254.318,386.961,253.906,386.8z"/>
		<path style="fill:#B44E50;" d="M115.061,379.506c-0.331-0.153-0.635-0.38-0.975-0.503c-0.372-0.135-0.746-0.264-1.119-0.394
			c-0.708-0.245-1.408-0.529-2.079-0.863c-0.666-0.332-1.305-0.72-1.934-1.118c-0.64-0.406-1.233-0.915-1.98-1.078
			c-0.148-0.032-0.283,0.092-0.245,0.245c0.192,0.765,0.805,1.303,1.402,1.792c0.64,0.523,1.327,0.968,2.056,1.357
			c0.711,0.38,1.451,0.707,2.219,0.954c0.4,0.129,0.801,0.221,1.215,0.29c0.422,0.07,0.838,0,1.263-0.036
			C115.192,380.125,115.402,379.664,115.061,379.506z"/>
		<path style="fill:#2E344B;" d="M70.39,347.716c0.107,0.002,0.198-0.019,0.28-0.051c4.697,0.003,9.394,0.014,14.091,0.023
			c4.233,0.008,8.465,0.087,12.698,0.083c4.264-0.004,8.626,0.247,12.871-0.197c-0.015,0.228-0.031,0.455-0.047,0.683
			c-0.115,1.714-0.23,3.428-0.345,5.141c-0.112,1.671-0.571,3.705-0.015,5.316c0.17,0.491,0.93,0.696,1.198,0.156
			c0.709-1.43,0.572-3.209,0.667-4.771l0.328-5.375c0.219-3.583,0.441-7.166,0.646-10.75c0.205-3.582,0.437-7.166,0.579-10.75
			c0.068-1.714,0.137-3.428,0.205-5.141c0.07-1.746,0.252-3.491-0.056-5.216c-0.051-0.288-0.463-0.243-0.539,0
			c-0.507,1.609-0.547,3.306-0.695,4.982c-0.158,1.792-0.316,3.583-0.474,5.375c-0.309,3.501-0.529,7.011-0.782,10.517
			c-0.208,2.888-0.398,5.778-0.591,8.668c-4.271-0.456-8.661-0.2-12.951-0.204c-4.233-0.004-8.465,0.075-12.698,0.083
			c-4.697,0.009-9.394,0.02-14.091,0.023c-0.082-0.031-0.174-0.053-0.28-0.05c-3.838-0.088-7.659,0.014-11.495,0.033
			c-0.326-0.002-0.53,0.184-0.619,0.418c-0.227,0.088-0.227,0.465,0,0.553c0.088,0.234,0.292,0.42,0.619,0.418
			C62.731,347.702,66.552,347.804,70.39,347.716z"/>
		<path style="fill:#2E344B;" d="M249.292,349.466c-4.797,0.451-9.598,0.858-14.406,1.167c-3.186,0.204-6.375,0.374-9.565,0.51
			c-1.556,0.066-3.113,0.14-4.669,0.201c-1.59,0.062-3.258-0.011-4.822,0.311c-0.058,0.012-0.107,0.037-0.152,0.065
			c-0.01-0.158-0.021-0.317-0.03-0.475c-0.196-3.52-0.389-7.04-0.59-10.56c-0.388-6.81-0.514-13.749-1.466-20.502
			c-0.053-0.373-0.625-0.264-0.636,0.086c-0.109,3.438,0.133,6.885,0.279,10.325c0.15,3.521,0.335,7.04,0.519,10.56
			c0.179,3.442,0.366,6.884,0.55,10.325c0.181,3.382,0.134,6.894,0.696,10.237c0.063,0.375,0.409,0.457,0.694,0.348l-0.018-0.199
			l0.297-0.013c0.059-0.08,0.105-0.172,0.111-0.283c0.17-2.917-0.133-5.916-0.342-8.855c0.029,0.011,0.054,0.028,0.087,0.033
			c1.502,0.242,3.073,0.108,4.588,0.073c1.635-0.037,3.269-0.078,4.903-0.146c3.19-0.131,6.379-0.297,9.565-0.497
			c4.916-0.309,9.824-0.706,14.725-1.192C249.508,350.494,249.402,349.989,249.292,349.466z"/>
		<path style="fill:#2E344B;" d="M192.095,372.114c-1.711,0.19-3.328,1.044-4.934,1.629c-1.651,0.601-3.312,1.175-4.99,1.694
			c-3.423,1.06-6.907,1.919-10.429,2.574c-7.114,1.323-14.391,1.796-21.616,1.425c-4.063-0.209-8.079-0.827-12.121-1.222
			c-0.44-0.043-0.504,0.635-0.102,0.752c6.899,2.013,14.559,2.232,21.704,1.959c7.299-0.279,14.579-1.422,21.612-3.392
			c2.028-0.568,4.044-1.196,6.022-1.92c1.769-0.648,3.831-1.223,5.286-2.457C192.912,372.831,192.616,372.056,192.095,372.114z"/>
		<path style="fill:#2E344B;" d="M196.412,376.587c-0.992,0.198-1.931,0.693-2.833,1.141c-0.96,0.477-1.925,0.951-2.898,1.402
			c-0.941,0.437-1.905,0.817-2.849,1.244c-0.872,0.394-1.984,0.721-2.607,1.482c-0.071,0.086-0.053,0.227,0.068,0.259
			c0.961,0.25,2.048-0.186,2.963-0.469c1.02-0.316,2.015-0.74,2.999-1.154c0.988-0.415,1.963-0.85,2.916-1.34
			c0.95-0.489,1.947-1.026,2.67-1.827C197.146,376.989,196.846,376.501,196.412,376.587z"/>
		<path style="fill:#2E344B;" d="M159.901,195.83c-1.544-0.503-3.172-0.359-4.719,0.064c-1.481,0.405-3.027,1.037-4.234,2.004
			c-1.224,0.98-2.565,2.217-2.737,3.855c-0.15,1.434,1.076,2.338,2.388,2.246c1.007-0.071,1.843-0.683,2.747-1.066
			c0.66-0.28,1.337-0.543,2.019-0.777c1.413-0.377,2.876-0.487,4.266-0.919c-0.256,0.079-0.512,0.158-0.768,0.237
			c0.576-0.171,1.164-0.286,1.675-0.61c0.561-0.355,1.007-0.821,1.246-1.456C162.337,197.942,161.337,196.298,159.901,195.83z"/>
		<path style="fill:#2E344B;" d="M192.279,203.31c-0.165-0.469-0.335-0.92-0.647-1.318c-0.19-0.242-0.403-0.469-0.617-0.689
			c-0.556-0.574-1.151-1.139-1.796-1.613c-0.626-0.461-1.354-0.826-2.051-1.16c-0.288-0.138-0.584-0.281-0.889-0.376
			c-0.452-0.14-0.937-0.21-1.406-0.268c-0.867-0.106-1.852,0.467-2.133,1.312c-0.278,0.836-0.061,1.902,0.726,2.402
			c0.168,0.107,0.334,0.217,0.497,0.332c0.301,0.213,0.623,0.378,0.949,0.551c-0.17-0.091-0.341-0.183-0.511-0.274
			c0.993,0.533,1.923,1.217,2.772,1.965c0.23,0.222,0.458,0.446,0.669,0.686c0.384,0.436,0.821,0.729,1.271,1.077
			c0.716,0.553,1.923,0.518,2.598-0.096c0.271-0.246,0.482-0.542,0.627-0.878C192.57,204.422,192.465,203.837,192.279,203.31z"/>
		<path style="fill:#2E344B;" d="M162.507,213.232c0.002-1.824-0.491-3.561-1.505-4.563c-0.38-0.376-0.823-0.636-1.326-0.78
			c-0.477-0.227-0.986-0.324-1.525-0.29c-1.058,0.077-2.153,0.465-2.857,1.3c-0.199,0.281-0.398,0.562-0.597,0.843
			c-0.912,1.287-0.796,4.22-0.83,5.724c-0.041,1.797,0.723,3.848,2.613,4.388c0.472,0.225,0.975,0.321,1.509,0.287
			C160.951,219.955,162.504,216.457,162.507,213.232z"/>
		<path style="fill:#2E344B;" d="M188.739,216.01c0.002-1.754-0.472-3.424-1.447-4.388c-0.366-0.361-0.791-0.611-1.275-0.75
			c-0.459-0.219-0.948-0.312-1.467-0.279c-1.017,0.074-2.07,0.448-2.748,1.25c-0.191,0.27-0.383,0.54-0.574,0.811
			c-0.877,1.238-0.766,4.058-0.798,5.505c-0.039,1.728,0.695,3.701,2.513,4.22c0.454,0.216,0.938,0.308,1.452,0.276
			C187.243,222.475,188.736,219.112,188.739,216.01z"/>
		<path style="fill:#B44E50;" d="M172.969,223.244c-0.751-1.039-1.231-2.204-1.405-3.477c-0.086-0.632-0.089-1.263-0.015-1.897
			c0.074-0.634,0.376-1.339-0.076-1.887c-0.197-0.238-0.481-0.256-0.752-0.169c-1.016,0.323-1,2.337-0.988,3.195
			c0.016,1.256,0.257,2.488,0.747,3.647c0.231,0.546,0.526,1.057,0.852,1.552c0.299,0.453,0.747,0.957,0.852,1.506
			c0.09,0.473-0.292,0.735-0.621,1.005c-0.542,0.446-1.188,0.889-1.532,1.515c-0.329,0.598,0.042,1.455,0.82,1.313
			c1.224-0.222,2.57-1.421,3.088-2.543C174.576,225.625,173.763,224.342,172.969,223.244z"/>
		<path style="fill:#B44E50;" d="M173.318,235.037c-1.18-0.359-2.408-0.568-3.642-0.566c-1.282,0.001-2.572,0.152-3.785,0.584
			c-0.532,0.189-1.058,0.436-1.539,0.731c-0.539,0.33-1.246,0.73-1.3,1.432c-0.024,0.315,0.152,0.578,0.434,0.705
			c0.493,0.22,0.999-0.018,1.475-0.168c0.511-0.161,1.028-0.294,1.555-0.393c0.995-0.187,1.968-0.333,2.976-0.286
			c0.987,0.046,1.926,0.209,2.849,0.531c1.038,0.362,2.134,1.211,3.274,1.028c0.532-0.085,1.007-0.663,0.869-1.216
			C176.135,236.019,174.572,235.419,173.318,235.037z"/>
		<path style="fill:#FFFFFF;" d="M162.598,208.313c-0.079-0.125-0.158-0.25-0.237-0.375c-0.139-0.179-0.31-0.313-0.514-0.401
			c-0.188-0.122-0.396-0.191-0.625-0.206c-0.014,0-0.027,0-0.041,0c-0.314-0.031-0.615,0.019-0.902,0.15
			c-0.274,0.128-0.499,0.315-0.676,0.561c-0.069,0.129-0.139,0.258-0.208,0.387c-0.109,0.29-0.139,0.588-0.089,0.895
			c0.03,0.235,0.115,0.445,0.255,0.629c0.103,0.199,0.251,0.361,0.442,0.487c0.247,0.175,0.52,0.279,0.821,0.311
			c0.314,0.031,0.615-0.02,0.902-0.15c0.013-0.005,0.026-0.009,0.039-0.014c0.125-0.079,0.25-0.158,0.375-0.237
			c0.179-0.139,0.313-0.31,0.401-0.514c0.087-0.123,0.139-0.259,0.155-0.409c0.072-0.219,0.084-0.444,0.037-0.675
			C162.688,208.606,162.643,208.46,162.598,208.313z"/>
		<path style="fill:#FFFFFF;" d="M188.792,211.095c-0.079-0.125-0.158-0.25-0.237-0.375c-0.139-0.179-0.31-0.313-0.514-0.401
			c-0.188-0.122-0.396-0.191-0.625-0.206c-0.014,0-0.028,0-0.041,0c-0.314-0.031-0.615,0.019-0.902,0.15
			c-0.274,0.128-0.499,0.315-0.676,0.561c-0.069,0.129-0.139,0.258-0.208,0.387c-0.109,0.29-0.139,0.588-0.089,0.895
			c0.03,0.235,0.115,0.445,0.255,0.629c0.103,0.199,0.251,0.361,0.442,0.487c0.247,0.175,0.52,0.279,0.821,0.311
			c0.314,0.031,0.615-0.02,0.902-0.15c0.013-0.005,0.026-0.009,0.039-0.014c0.125-0.079,0.25-0.158,0.375-0.237
			c0.179-0.139,0.313-0.31,0.401-0.514c0.087-0.123,0.139-0.259,0.155-0.409c0.072-0.219,0.085-0.444,0.037-0.675
			C188.882,211.388,188.837,211.242,188.792,211.095z"/>
	</g>
	<g>
		<g>
			<g>
				<rect x="71.398" y="121.312" style="fill:#C9B5A9;" width="31.081" height="31.081"/>
				<circle style="fill:#C9B5A9;" cx="87.056" cy="124.794" r="2.011"/>
			</g>
			<g>
				<rect x="73.046" y="119.192" style="fill:#FFFFFF;" width="31.081" height="31.081"/>
				<path style="fill:#6779B7;" d="M90.716,122.675c0,1.111-0.9,2.011-2.011,2.011c-1.111,0-2.011-0.9-2.011-2.011
					c0-1.111,0.9-2.011,2.011-2.011C89.815,120.664,90.716,121.564,90.716,122.675z"/>
			</g>
		</g>
		<g>
			<g>
				<rect x="40.082" y="166.167" style="fill:#C9B5A9;" width="31.081" height="31.081"/>
				<path style="fill:#C9B5A9;" d="M57.751,169.65c0,1.111-0.901,2.011-2.011,2.011c-1.111,0-2.011-0.9-2.011-2.011
					c0-1.111,0.901-2.011,2.011-2.011C56.851,167.638,57.751,168.539,57.751,169.65z"/>
			</g>
			<g>
				<rect x="41.73" y="164.048" style="fill:#FFFFFF;" width="31.081" height="31.081"/>
				<circle style="fill:#6779B7;" cx="57.388" cy="167.531" r="2.011"/>
			</g>
		</g>
	</g>
</g>
<g id="TEXT">
	<g>
		
			<text transform="matrix(0.9991 0.0422 -0.0422 0.9991 186.0216 119.3907)" style="fill:#6779B7; font-family:'Quicksand-Bold'; font-size:59.8023px;">?</text>
		
			<text transform="matrix(0.7552 0.6554 -0.6554 0.7552 212.121 124.1904)" style="fill:#6779B7; font-family:'Quicksand-Bold'; font-size:52.7384px;">?</text>
		
			<text transform="matrix(0.9704 -0.2414 0.2414 0.9704 156.4273 119.0243)" style="fill:#6779B7; font-family:'Quicksand-Bold'; font-size:49.879px;">?</text>
	</g>
	<text transform="matrix(1 0 0 1 331.6722 228.5904)" style="fill:#2E344B; font-family:'Quicksand-Bold'; font-size:14.7013px;">NO DATA</text>
</g>
</svg>
